<svg width="120" height="13" viewBox="0 0 120 13" fill="none" xmlns="http://www.w3.org/2000/svg">
<path d="M37.5 2.88049C35.5453 2.88049 34.0969 4.46374 34.0969 6.57005C34.0753 7.0463 34.1509 7.52194 34.3191 7.96825C34.4873 8.41455 34.7446 8.82225 35.0754 9.16668C35.4062 9.51111 35.8036 9.78514 36.2437 9.97219C36.6839 10.1592 37.1575 10.2554 37.6359 10.2549C38.202 10.2609 38.7622 10.1407 39.2756 9.90315C39.789 9.66558 40.2426 9.31664 40.6031 8.88187L40.1906 8.51291C40.1096 8.43637 40.0023 8.39371 39.8906 8.39371C39.779 8.39371 39.6716 8.43637 39.5906 8.51291C39.0695 8.98716 38.3886 9.24889 37.6828 9.24615C36.4172 9.24615 35.2922 8.42418 35.2922 6.57005C35.2922 4.71593 36.3516 3.88928 37.5 3.88928C37.7918 3.88901 38.0807 3.94764 38.3492 4.06163C38.6177 4.17563 38.8602 4.34262 39.0621 4.55255C39.2641 4.76247 39.4212 5.01098 39.5242 5.28307C39.6271 5.55517 39.6736 5.84521 39.6609 6.13571H36.7031C36.5788 6.13571 36.4596 6.18492 36.3717 6.2725C36.2838 6.36009 36.2344 6.47888 36.2344 6.60275V7.03709H40.1906C40.2698 7.03713 40.3482 7.02131 40.4211 6.99058C40.494 6.95984 40.5599 6.91482 40.615 6.85818C40.6701 6.80154 40.7132 6.73445 40.7418 6.66088C40.7703 6.58731 40.7838 6.50878 40.7813 6.42994C40.7016 4.25824 39.3234 2.88049 37.5 2.88049Z" fill="black"/>
<path d="M55.0453 2.9272C54.1359 2.93356 53.2398 3.14597 52.425 3.54836L52.6547 4.07143C52.6706 4.12924 52.6988 4.18298 52.7373 4.22905C52.7757 4.27512 52.8237 4.31246 52.8778 4.33856C52.932 4.36465 52.9911 4.37891 53.0513 4.38036C53.1114 4.38182 53.1712 4.37043 53.2266 4.34698C53.7757 4.12887 54.3604 4.01331 54.9516 4.00605C56.2641 4.00605 56.9766 4.64588 56.9766 5.83682V7.50879C56.9766 8.53627 55.9875 9.31621 54.6984 9.31621C53.8734 9.31621 52.9969 8.90522 52.9969 7.98984C52.9969 7.07445 53.7328 6.58874 54.975 6.58874H55.5938C55.7181 6.58874 55.8373 6.53953 55.9252 6.45195C56.0131 6.36436 56.0625 6.24557 56.0625 6.12171V5.6827H54.8672C52.9641 5.6827 51.8109 6.5327 51.8109 8.01786C51.8109 9.50303 53.1937 10.2596 54.4781 10.2596C54.9427 10.2744 55.4048 10.1856 55.8305 9.99979C56.2563 9.81395 56.635 9.53573 56.9391 9.18544V9.65248C56.9391 9.77634 56.9884 9.89513 57.0764 9.98272C57.1643 10.0703 57.2835 10.1195 57.4078 10.1195H58.0734V5.79945C58.0781 3.93132 57 2.9272 55.0453 2.9272Z" fill="black"/>
<path d="M24.6844 0.545334H23.9953V1.23187C23.9953 1.35574 24.0447 1.47453 24.1326 1.56211C24.2205 1.6497 24.3397 1.69891 24.4641 1.69891H25.1531V1.00303C25.1507 0.880787 25.1002 0.764381 25.0126 0.678805C24.9249 0.59323 24.8071 0.545309 24.6844 0.545334Z" fill="black"/>
<path d="M89.4938 0.545334H88.8047V1.23187C88.8047 1.35574 88.8541 1.47453 88.942 1.56211C89.0299 1.6497 89.1491 1.69891 89.2734 1.69891H89.9625V1.00303C89.96 0.880787 89.9096 0.764381 89.8219 0.678805C89.7343 0.59323 89.6165 0.545309 89.4938 0.545334Z" fill="black"/>
<path d="M16.4344 8.42417C15.9445 8.90861 15.2869 9.18771 14.5969 9.20412C14.2563 9.19632 13.9206 9.12108 13.6094 8.9828C13.2983 8.84451 13.0179 8.64593 12.7845 8.39862C12.5511 8.15131 12.3694 7.86021 12.25 7.54227C12.1306 7.22433 12.0759 6.88591 12.0891 6.5467C12.0746 6.21462 12.1266 5.883 12.242 5.57111C12.3573 5.25922 12.5337 4.97329 12.761 4.72993C12.9882 4.48658 13.2617 4.29065 13.5656 4.15355C13.8695 4.01645 14.1978 3.94091 14.5312 3.93132C15.2153 3.94351 15.8671 4.22372 16.3453 4.71126C16.3878 4.75058 16.4376 4.78117 16.4919 4.80128C16.5462 4.82138 16.604 4.83062 16.6619 4.82845C16.7198 4.82628 16.7767 4.81275 16.8294 4.78863C16.882 4.76452 16.9294 4.73029 16.9687 4.68791L17.4375 4.18352C17.0811 3.76273 16.6357 3.42563 16.1333 3.19634C15.6309 2.96704 15.0838 2.85121 14.5312 2.85714C13.5466 2.85714 12.6023 3.24685 11.9061 3.94053C11.2099 4.6342 10.8188 5.57503 10.8188 6.55604C10.8188 7.53705 11.2099 8.47788 11.9061 9.17156C12.6023 9.86524 13.5466 10.2549 14.5312 10.2549C15.0948 10.2534 15.6509 10.1268 16.1593 9.88446C16.6676 9.64212 17.1155 9.29007 17.4703 8.85385L17.0344 8.44286C16.9524 8.37029 16.8474 8.32868 16.7378 8.32527C16.6281 8.32186 16.5208 8.35686 16.4344 8.42417Z" fill="black"/>
<path d="M32.1094 3.61374L30.0375 8.53627L27.9703 3.61374C27.8979 3.44344 27.7764 3.29838 27.6212 3.19694C27.466 3.09551 27.2841 3.04226 27.0984 3.04396H26.4563L29.325 9.66182C29.3783 9.80482 29.4742 9.92816 29.5999 10.0153C29.7256 10.1024 29.875 10.149 30.0281 10.149C30.1812 10.149 30.3307 10.1024 30.4564 10.0153C30.582 9.92816 30.678 9.80482 30.7313 9.66182L33.6234 3.04396H33.0047C32.8151 3.03754 32.6281 3.08857 32.4682 3.1903C32.3084 3.29203 32.1832 3.43967 32.1094 3.61374Z" fill="black"/>
<path d="M21.8578 3.04395H20.1094V1.00302C20.1094 0.879156 20.06 0.760364 19.9721 0.672778C19.8842 0.585193 19.7649 0.535988 19.6406 0.535988H18.9609V8.24203C18.956 8.50225 19.0027 8.76088 19.0983 9.00307C19.194 9.24525 19.3367 9.46621 19.5184 9.65326C19.7 9.84031 19.917 9.98976 20.1567 10.093C20.3965 10.1963 20.6544 10.2513 20.9156 10.2549C21.4043 10.2691 21.8885 10.1581 22.3219 9.93269V8.88187C21.9856 9.04732 21.6184 9.14117 21.2438 9.15742C21.0932 9.18044 20.9393 9.16781 20.7945 9.12056C20.6498 9.07331 20.5182 8.99277 20.4105 8.88544C20.3028 8.77812 20.2219 8.64704 20.1745 8.5028C20.1271 8.35857 20.1144 8.20524 20.1375 8.05522V4.07143H22.3453V3.50165C22.3441 3.4395 22.3305 3.37822 22.3052 3.32139C22.2799 3.26457 22.2435 3.21334 22.1981 3.17071C22.1527 3.12808 22.0992 3.09491 22.0408 3.07315C21.9824 3.05138 21.9201 3.04146 21.8578 3.04395Z" fill="black"/>
<path d="M24.6844 3.04395H23.9953V9.66181C23.9895 9.72458 23.9977 9.78784 24.0192 9.84711C24.0408 9.90639 24.0751 9.96021 24.1198 10.0048C24.1646 10.0494 24.2186 10.0836 24.2781 10.105C24.3376 10.1264 24.4011 10.1346 24.4641 10.1288H25.1531V3.50165C25.1507 3.37941 25.1002 3.263 25.0126 3.17743C24.9249 3.09185 24.8071 3.04393 24.6844 3.04395Z" fill="black"/>
<path d="M49.8047 8.07857C49.0713 8.78752 48.089 9.18302 47.0672 9.18077C45.0469 9.18077 43.4859 7.48544 43.4859 5.33241C43.4859 3.17939 45.0234 1.53077 47.0672 1.53077C48.0508 1.54959 48.9959 1.9153 49.7344 2.56291C49.8259 2.63291 49.94 2.66685 50.055 2.65824C50.1701 2.64962 50.2779 2.59905 50.3578 2.51621L50.8594 1.98846C50.3748 1.48689 49.7918 1.08999 49.1466 0.822444C48.5015 0.554897 47.8081 0.422416 47.1094 0.433238C46.4597 0.424669 45.815 0.547489 45.2143 0.794268C44.6136 1.04105 44.0693 1.40666 43.6145 1.86899C43.1597 2.33132 42.8037 2.88077 42.5681 3.48409C42.3325 4.08742 42.2221 4.73209 42.2438 5.37912C42.2216 6.02007 42.3298 6.65887 42.5616 7.25714C42.7935 7.85541 43.1444 8.40081 43.5932 8.86058C44.0419 9.32036 44.5793 9.68501 45.1731 9.93265C45.7669 10.1803 46.4048 10.3058 47.0484 10.3016C47.776 10.3092 48.4968 10.1613 49.1622 9.86808C49.8276 9.57485 50.4223 9.14302 50.9063 8.60165L50.4375 8.13461C50.3583 8.04782 50.2493 7.99387 50.1321 7.98349C50.0148 7.9731 49.898 8.00705 49.8047 8.07857Z" fill="black"/>
<path d="M67.9687 2.88049C67.4784 2.8697 66.9937 2.98686 66.5628 3.22035C66.132 3.45384 65.7699 3.79554 65.5125 4.21153C65.3025 3.79913 64.9789 3.4549 64.5795 3.21916C64.1802 2.98342 63.7217 2.86595 63.2578 2.88049C62.8242 2.87438 62.3961 2.97836 62.014 3.18263C61.6318 3.38689 61.3081 3.68473 61.0734 4.04807V3.50165C61.0734 3.37778 61.024 3.25899 60.9361 3.1714C60.8482 3.08382 60.729 3.03461 60.6047 3.03461H59.9156V10.1195H60.6047C60.729 10.1195 60.8482 10.0703 60.9361 9.98271C61.024 9.89513 61.0734 9.77633 61.0734 9.65247V6.08901C61.0734 4.85137 61.8562 3.95934 62.9484 3.95934C64.0406 3.95934 64.6875 4.71593 64.6875 5.97225V9.66181C64.6875 9.78568 64.7369 9.90447 64.8248 9.99205C64.9127 10.0796 65.0319 10.1288 65.1562 10.1288H65.8453V6.04231C65.8453 4.59917 66.7828 3.95934 67.7203 3.95934C68.8266 3.95934 69.4687 4.69258 69.4687 5.9956V9.66181C69.4687 9.78568 69.5181 9.90447 69.606 9.99205C69.6939 10.0796 69.8132 10.1288 69.9375 10.1288H70.6266V5.7434C70.6031 3.98269 69.5906 2.88049 67.9687 2.88049Z" fill="black"/>
<path d="M76.2797 2.8805C75.7604 2.87807 75.2486 3.00497 74.791 3.24965C74.3334 3.49434 73.9444 3.84906 73.6594 4.2816V3.50165C73.6594 3.37779 73.61 3.25899 73.5221 3.17141C73.4342 3.08382 73.3149 3.03462 73.1906 3.03462H72.5016V11.8335C72.5016 11.9574 72.5509 12.0762 72.6389 12.1638C72.7268 12.2513 72.846 12.3006 72.9703 12.3006H73.6594V8.90522C73.953 9.32561 74.3451 9.66827 74.8017 9.90348C75.2583 10.1387 75.7657 10.2593 76.2797 10.2549C77.9344 10.2549 79.6828 8.95193 79.6828 6.57006C79.6828 4.18819 77.9109 2.8805 76.2797 2.8805ZM76.0969 9.20412C75.7603 9.19642 75.4288 9.12166 75.1217 8.98426C74.8146 8.84687 74.5383 8.64961 74.3089 8.40413C74.0796 8.15864 73.9019 7.86989 73.7863 7.5549C73.6707 7.2399 73.6196 6.90504 73.6359 6.57006C73.6189 6.23469 73.6696 5.89933 73.7849 5.58379C73.9002 5.26825 74.0778 4.97894 74.3072 4.73295C74.5366 4.48696 74.8132 4.28928 75.1206 4.15159C75.428 4.01391 75.7599 3.93901 76.0969 3.93132C77.475 3.93132 78.4875 5.0522 78.4875 6.56539C78.4875 8.07857 77.4984 9.20412 76.0969 9.20412Z" fill="black"/>
<path d="M89.4703 3.04395H88.7812V9.66181C88.7812 9.78568 88.8306 9.90447 88.9185 9.99205C89.0065 10.0796 89.1257 10.1288 89.25 10.1288H89.9391V3.50165C89.9366 3.37941 89.8861 3.263 89.7985 3.17743C89.7109 3.09185 89.593 3.04393 89.4703 3.04395Z" fill="black"/>
<path d="M97.5609 3.50165V4.16483C97.2109 3.7188 96.753 3.36862 96.23 3.14711C95.707 2.92561 95.1362 2.84002 94.571 2.89838C94.0057 2.95675 93.4646 3.15714 92.9984 3.48079C92.5321 3.80444 92.156 4.24075 91.9052 4.74881C91.6544 5.25687 91.5372 5.82005 91.5646 6.38558C91.5919 6.9511 91.763 7.50044 92.0616 7.9821C92.3603 8.46377 92.7769 8.86199 93.2722 9.13944C93.7676 9.4169 94.3255 9.56449 94.8938 9.5684C95.4145 9.57362 95.9288 9.45366 96.3931 9.2187C96.8574 8.98374 97.258 8.64071 97.5609 8.21868V8.85851C97.5609 10.3951 96.6656 11.2637 95.0812 11.2637C94.2534 11.2633 93.442 11.0337 92.7375 10.6005C92.6877 10.5661 92.631 10.5427 92.5713 10.5321C92.5116 10.5214 92.4503 10.5237 92.3916 10.5387C92.3329 10.5538 92.2781 10.5813 92.231 10.6194C92.1839 10.6575 92.1456 10.7052 92.1188 10.7593L91.8188 11.2871C92.7853 11.9449 93.9295 12.295 95.1 12.2912C97.4016 12.2912 98.7094 11.0349 98.7094 8.83516V3.04395H98.0203C97.8992 3.04634 97.7838 3.09533 97.6981 3.18065C97.6125 3.26597 97.5633 3.38101 97.5609 3.50165ZM95.0578 8.53626C94.7474 8.54598 94.4382 8.49223 94.1495 8.37832C93.8607 8.26441 93.5984 8.09275 93.3788 7.87394C93.1592 7.65513 92.9869 7.39381 92.8726 7.1061C92.7583 6.81839 92.7043 6.51039 92.7141 6.2011C92.7067 5.89458 92.7626 5.58983 92.8784 5.30577C92.9942 5.0217 93.1674 4.76438 93.3872 4.54979C93.607 4.33519 93.8687 4.16789 94.1561 4.05829C94.4434 3.94868 94.7504 3.8991 95.0578 3.91263C95.3761 3.88786 95.6962 3.92895 95.9978 4.0333C96.2994 4.13766 96.5761 4.30304 96.8105 4.51905C97.0449 4.73505 97.2319 4.99703 97.3598 5.2885C97.4877 5.57997 97.5538 5.89465 97.5538 6.21277C97.5538 6.53089 97.4877 6.84557 97.3598 7.13704C97.2319 7.42852 97.0449 7.69049 96.8105 7.9065C96.5761 8.1225 96.2994 8.28788 95.9978 8.39224C95.6962 8.4966 95.3761 8.53768 95.0578 8.51291V8.53626Z" fill="black"/>
<path d="M104.086 2.88049C103.623 2.86454 103.165 2.96796 102.754 3.18071C102.343 3.39346 101.995 3.70833 101.742 4.09478V3.50165C101.742 3.37778 101.693 3.25899 101.605 3.1714C101.517 3.08382 101.398 3.03461 101.273 3.03461H100.584V10.1195H101.273C101.398 10.1195 101.517 10.0703 101.605 9.98271C101.693 9.89513 101.742 9.77634 101.742 9.65247V6.05632C101.724 5.78252 101.763 5.50793 101.857 5.25004C101.951 4.99215 102.098 4.75661 102.289 4.55845C102.479 4.36029 102.709 4.20385 102.964 4.09909C103.218 3.99433 103.492 3.94355 103.767 3.95C104.939 3.95 105.642 4.70659 105.642 5.98626V9.65247C105.642 9.77634 105.692 9.89513 105.779 9.98271C105.867 10.0703 105.987 10.1195 106.111 10.1195H106.8V5.72005C106.823 4.00604 105.764 2.88049 104.086 2.88049Z" fill="black"/>
<path d="M118.772 5.42583L111.563 0.750824V1.68489C111.562 1.83789 111.6 1.98861 111.672 2.12379C111.744 2.25898 111.848 2.37448 111.975 2.46016L117.928 6.42061L111.975 10.3624C111.85 10.4467 111.747 10.56 111.675 10.6925C111.603 10.8251 111.565 10.973 111.563 11.1236V12.1091L118.777 7.39203C118.937 7.28178 119.069 7.13481 119.161 6.96338C119.254 6.79195 119.303 6.60104 119.306 6.40659C119.307 6.21151 119.259 6.01932 119.165 5.84786C119.072 5.6764 118.937 5.53123 118.772 5.42583Z" fill="black"/>
<path d="M114.338 6.73351C114.496 6.83414 114.679 6.88761 114.867 6.88761C115.055 6.88761 115.239 6.83414 115.397 6.73351L115.903 6.39258L112.153 3.84725C112.098 3.81034 112.034 3.78893 111.967 3.78525C111.901 3.78156 111.835 3.79576 111.776 3.82633C111.717 3.85691 111.667 3.90274 111.632 3.95901C111.597 4.01528 111.578 4.07993 111.577 4.14615V4.90275L113.531 6.20577L114.338 6.73351Z" fill="black"/>
<path d="M83.9578 2.9272C83.0483 2.9329 82.1521 3.14535 81.3375 3.54836L81.5625 4.07143C81.5784 4.12924 81.6066 4.18298 81.6451 4.22905C81.6836 4.27512 81.7315 4.31246 81.7857 4.33856C81.8398 4.36465 81.899 4.37891 81.9591 4.38036C82.0192 4.38182 82.079 4.37043 82.1344 4.34698C82.6835 4.12887 83.2683 4.01331 83.8594 4.00605C85.1672 4.00605 85.8797 4.64588 85.8797 5.83682V7.50879C85.8797 8.53627 84.8953 9.31621 83.6063 9.31621C82.7766 9.31621 81.9047 8.90522 81.9047 7.98984C81.9047 7.07445 82.6406 6.58874 83.8828 6.58874H84.5016C84.6259 6.58874 84.7451 6.53953 84.833 6.45195C84.9209 6.36436 84.9703 6.24557 84.9703 6.12171V5.6827H83.775C81.8672 5.6827 80.7188 6.5327 80.7188 8.01786C80.7188 9.50303 82.0969 10.2596 83.3859 10.2596C83.8498 10.2744 84.3112 10.1856 84.7362 9.9997C85.1612 9.81384 85.5391 9.53563 85.8422 9.18544V9.65248C85.8422 9.77634 85.8916 9.89513 85.9795 9.98272C86.0674 10.0703 86.1866 10.1195 86.3109 10.1195H86.9766V5.79945C86.9906 3.93132 85.9078 2.9272 83.9578 2.9272Z" fill="black"/>
<path d="M5.625 0.545331C5.46339 0.520777 5.29829 0.554268 5.15918 0.639823C5.02007 0.725377 4.91603 0.857421 4.86563 1.01236L0.712501 10.1195H1.33594C1.51787 10.1155 1.69526 10.0621 1.84893 9.96497C2.00259 9.86784 2.12669 9.73071 2.20781 9.56841L3.07969 7.66758H6.36094C6.48526 7.66758 6.60449 7.61838 6.69239 7.53079C6.7803 7.44321 6.82969 7.32442 6.82969 7.20055V6.57006H3.54844L5.625 1.98846L8.98594 9.53572C9.05524 9.70644 9.17364 9.85294 9.32627 9.95681C9.47889 10.0607 9.65893 10.1173 9.84375 10.1195H10.5094L6.38906 1.02637C6.33354 0.872948 6.22826 0.742344 6.08988 0.655221C5.9515 0.568098 5.78791 0.52943 5.625 0.545331Z" fill="black"/>
</svg>
