<svg width="191" height="46" viewBox="0 0 191 46" fill="none" xmlns="http://www.w3.org/2000/svg">
<g clip-path="url(#clip0_1_687)">
<path d="M27.6143 26.4801C26.3063 27.6241 24.6833 29.0571 21.7402 29.0571H19.9719C17.8403 29.0571 15.8903 28.2864 14.5096 26.8895C13.1531 25.5288 12.4022 23.6503 12.4022 21.6272V19.2309C12.4022 17.1958 13.1531 15.3293 14.5096 13.9686C15.9024 12.5717 17.8403 11.801 19.9719 11.801H21.7402C24.6954 11.801 26.3184 13.234 27.6143 14.378C28.9708 15.5702 30.1336 16.5937 33.2462 16.5937C33.7307 16.5937 34.2032 16.5576 34.6634 16.4853C34.6634 16.4733 34.6513 16.4733 34.6513 16.4613C34.4696 16.0037 34.2516 15.5581 33.9973 15.1246L31.914 11.5481C30.0003 8.2607 26.476 6.23767 22.6608 6.23767H18.5064C14.6913 6.23767 11.1668 8.2607 9.25319 11.5481L7.17003 15.1246C5.25639 18.412 5.25639 22.4581 7.17003 25.7455L9.25319 29.322C11.1668 32.6094 14.6913 34.6325 18.5064 34.6325H22.6608C26.476 34.6325 30.0003 32.6094 31.914 29.322L33.9973 25.7455C34.2516 25.312 34.4696 24.8665 34.6513 24.4089C34.6513 24.3969 34.6634 24.3969 34.6634 24.3848C34.2032 24.3126 33.7307 24.2764 33.2462 24.2764C30.1336 24.2524 28.9587 25.288 27.6143 26.4801Z" fill="black"/>
<path d="M21.7281 13.9565H19.9598C16.7139 13.9565 14.5822 16.2686 14.5822 19.2188V21.6152C14.5822 24.5654 16.7139 26.8775 19.9598 26.8775H21.7281C26.4637 26.8775 26.0883 22.0848 33.2341 22.0848C33.9245 22.0848 34.5907 22.145 35.2569 22.2654C35.4749 21.0492 35.4749 19.7969 35.2569 18.5806C34.6028 18.701 33.9245 18.7613 33.2341 18.7613C26.0883 18.7613 26.4637 13.9565 21.7281 13.9565Z" fill="black"/>
<path d="M39.3627 24.0236C38.1394 23.1325 36.7466 22.5424 35.2569 22.2655C35.2569 22.2775 35.2569 22.2896 35.2569 22.3016C35.1358 23 34.9299 23.6985 34.6634 24.3728C35.9109 24.5775 37.0736 25.0471 38.0547 25.7576C38.0547 25.7697 38.0425 25.7817 38.0425 25.7937C37.4733 27.6362 36.6134 29.3581 35.4991 30.9356C34.3848 32.489 33.0526 33.8618 31.5144 35.0058C28.329 37.378 24.526 38.6424 20.5292 38.6424C18.0584 38.6424 15.6603 38.1608 13.3954 37.2095C11.2153 36.2943 9.2532 34.9817 7.56968 33.3079C5.88617 31.6341 4.56602 29.6833 3.64553 27.5157C2.68872 25.2759 2.20427 22.8796 2.20427 20.4231C2.20427 17.9665 2.68872 15.5822 3.64553 13.3304C4.56602 11.1628 5.88617 9.21206 7.56968 7.53824C9.2532 5.86442 11.2153 4.55183 13.3954 3.63664C15.6482 2.68533 18.0584 2.20367 20.5292 2.20367C24.526 2.20367 28.329 3.45603 31.5144 5.84032C33.0526 6.9843 34.3848 8.35707 35.4991 9.91048C36.6255 11.488 37.4733 13.222 38.0425 15.0524C38.0425 15.0644 38.0547 15.0765 38.0547 15.0885C37.0736 15.811 35.9109 16.2807 34.6634 16.4733C34.9299 17.1477 35.1358 17.8341 35.2569 18.5445C35.2569 18.5566 35.2569 18.5686 35.2569 18.5807C36.7466 18.3037 38.1394 17.7257 39.3627 16.8225C40.5375 15.9555 40.3073 14.9922 40.1256 14.4142C37.5458 6.08115 29.746 0.0361328 20.5169 0.0361328C9.19262 0.0361328 0.0120544 9.16389 0.0120544 20.4231C0.0120544 31.6822 9.19262 40.81 20.5169 40.81C29.746 40.81 37.5458 34.7529 40.1256 26.432C40.3073 25.854 40.5375 24.8786 39.3627 24.0236Z" fill="black"/>
<path d="M113.134 18.1952C116.102 18.1952 118.912 20.0015 119.505 23.9031H106.279C106.836 20.4832 109.416 18.1952 113.134 18.1952ZM119.093 29.6832C118.088 31.2486 116.126 32.4528 113.461 32.4528C109.779 32.4528 106.97 30.4418 106.291 26.9015H122.884C122.969 26.3958 123.005 25.878 123.005 25.3602C123.005 19.845 119.13 14.968 113.147 14.968C106.97 14.968 102.767 19.4958 102.767 25.324C102.767 31.2246 107.006 35.6801 113.377 35.6801C117.337 35.6801 120.341 33.9099 122.085 31.2366L119.093 29.6832Z" fill="black"/>
<path d="M101.132 6.41833H97.6922V35.1623H101.132V6.41833Z" fill="black"/>
<path d="M142.166 23.0722V35.1623H138.726V23.277C138.726 20.0497 136.861 18.2314 133.821 18.2314C130.648 18.2314 128.08 20.0859 128.08 24.722V35.1503H124.628V15.4618H128.068V18.2916C129.534 15.9675 131.714 14.944 134.487 14.944C139.114 14.9681 142.166 18.0387 142.166 23.0722Z" fill="black"/>
<path d="M161.169 25.3241C161.169 21.3021 158.117 18.2796 154.12 18.2796C150.16 18.2796 147.108 21.3142 147.108 25.3241C147.108 29.3341 150.16 32.3686 154.12 32.3686C158.117 32.3686 161.169 29.3341 161.169 25.3241ZM164.609 6.41833V35.1623H161.169V31.7786C159.582 34.1749 157.051 35.6801 153.684 35.6801C148.185 35.6801 143.668 31.1524 143.668 25.3241C143.668 19.4958 148.185 14.9681 153.684 14.9681C157.051 14.9681 159.582 16.4613 161.169 18.8697V6.43036H164.609V6.41833Z" fill="black"/>
<path d="M170.822 6.41833H167.382V35.1623H170.822V6.41833Z" fill="black"/>
<path d="M91.5515 25.324C91.5515 21.302 88.4995 18.2795 84.5027 18.2795C80.5422 18.2795 77.4899 21.3141 77.4899 25.324C77.4899 29.334 80.5422 32.3685 84.5027 32.3685C88.4995 32.3685 91.5515 29.334 91.5515 25.324ZM94.9912 15.4738V35.1623H91.5515V31.7785C89.9649 34.1748 87.4337 35.6801 84.0666 35.6801C78.568 35.6801 74.0502 31.1523 74.0502 25.324C74.0502 19.4958 78.568 14.968 84.0666 14.968C87.4337 14.968 89.9649 16.4612 91.5515 18.8696V15.4858H94.9912V15.4738Z" fill="black"/>
<path d="M68.9392 31.3811C67.1952 32.0193 65.2935 32.2 63.4405 31.8869C60.6184 31.4172 58.1477 29.8759 56.4884 27.5518C54.8291 25.2277 54.1752 22.4099 54.6476 19.6042C55.1199 16.7984 56.6702 14.3419 59.0077 12.6921C61.3453 11.0423 64.1794 10.3921 67.0014 10.8738C68.8545 11.1869 70.5864 11.9696 72.0277 13.1497C72.6333 13.6434 73.1783 14.2094 73.6628 14.8235L76.6421 12.656C75.976 11.789 75.2131 10.9942 74.3774 10.3198C72.4395 8.7303 70.1018 7.67061 67.619 7.24915C63.828 6.61093 60.0009 7.47794 56.864 9.69365C53.7271 11.9094 51.6439 15.2089 51.002 18.99C49.6818 26.7811 54.9746 34.1869 62.8108 35.5115C63.598 35.6439 64.4095 35.7162 65.221 35.7162C66.9408 35.7162 68.6122 35.4152 70.211 34.8251C71.5675 34.3314 72.8513 33.6089 74.014 32.7298L72.0277 29.611C71.1072 30.3576 70.0535 30.9717 68.9392 31.3811Z" fill="black"/>
<path d="M187.463 15.4738V26.6487C187.463 30.2613 185.344 32.5492 182.122 32.5492C178.901 32.5492 176.563 30.2613 176.563 26.6487V15.4738H173.075V26.3115C173.075 31.9953 176.636 35.6801 182.122 35.6801C186.87 35.6801 187.609 32.6937 187.609 32.6215V36.6435C187.609 40.6293 185.865 42.8691 182.231 42.8691C179.494 42.8691 177.241 40.8581 176.902 38.2691L173.789 39.3529C174.686 43.1581 178.101 46 182.231 46C187.863 46 190.952 42.3152 190.952 36.6314V15.4618H187.463V15.4738Z" fill="black"/>
</g>
<defs>
<clipPath id="clip0_1_687">
<rect width="191" height="46" fill="white"/>
</clipPath>
</defs>
</svg>
