<svg width="150" height="36" viewBox="0 0 150 36" fill="none" xmlns="http://www.w3.org/2000/svg">
<g clip-path="url(#clip0_11_3)">
<path d="M0 18.5848C0 9.22751 6.88319 1.57969 16.6269 1.57969C20.6496 1.48972 24.4934 2.74936 27.6222 5.26864C28.3373 5.80848 28.6949 6.70823 28.6949 7.51799C28.6949 9.04756 27.4434 10.3072 25.8343 10.3072C25.2086 10.3072 24.6722 10.1272 24.2253 9.76735C22.0799 7.87789 19.3981 6.7982 16.5375 6.7982C10.3695 6.7982 5.89988 12.0167 5.89988 18.4049V18.4949C5.89988 24.883 10.3695 30.1015 16.5375 30.1015C19.4875 30.1915 22.4374 29.0218 24.5828 26.9524C25.0298 26.5026 25.6555 26.3226 26.2813 26.3226C27.7116 26.3226 28.8737 27.4923 28.9631 29.0219C28.9631 29.8316 28.6055 30.5514 28.0691 31.0913C24.9404 34.0604 20.739 35.59 16.3588 35.5C6.97259 35.41 0 27.9422 0 18.5848Z" fill="black"/>
<path d="M31.0191 27.7622C31.0191 22.3638 35.1311 19.7545 41.031 19.7545C43.2658 19.7545 45.4112 20.1144 47.5566 20.7442V20.1144C47.5566 16.6054 45.4112 14.7159 41.5673 14.7159C39.6901 14.7159 37.9023 14.9859 36.2038 15.7057C35.9356 15.7956 35.6675 15.8856 35.3099 15.8856C34.0584 15.8856 32.9857 14.8959 32.9857 13.5463C32.9857 12.5566 33.6114 11.6568 34.5054 11.2969C37.0083 10.3072 39.6007 9.85733 42.2825 9.85733C45.9476 9.85733 48.6293 10.847 50.3278 12.6465C52.1156 14.446 52.9201 17.0553 52.9201 20.2943V32.4409C52.9201 33.8805 51.758 35.1401 50.3278 35.1401H50.2384C48.8081 35.2301 47.646 34.2404 47.5566 32.8008C47.5566 32.8008 47.5566 32.8008 47.5566 32.7108V31.8111C45.59 34.1504 42.7294 35.5 39.6901 35.41C35.0417 35.41 31.0191 32.7108 31.0191 27.7622ZM47.646 25.9627V24.2532C45.8582 23.6234 43.9809 23.2635 42.1037 23.2635C38.528 23.2635 36.3826 24.7931 36.3826 27.4023V27.4923C36.3826 29.9216 38.4386 31.2712 41.1204 31.2712C44.7855 31.2712 47.646 29.1118 47.646 25.9627Z" fill="black"/>
<path d="M58.0155 3.2892C58.0155 1.75964 59.1776 0.5 60.6973 0.5C62.2169 0.5 63.4684 1.75964 63.4684 3.2892V32.2609C63.4684 33.7905 62.2169 35.0501 60.6973 35.0501C59.1776 35.0501 57.9261 33.7905 57.9261 32.2609L58.0155 3.2892Z" fill="black"/>
<path d="M69.3683 3.2892C69.3683 1.75964 70.5304 0.5 72.0501 0.5C73.5697 0.5 74.8212 1.75964 74.8212 3.2892V32.2609C74.8212 33.7905 73.5697 35.0501 72.0501 35.0501C70.5304 35.0501 69.2789 33.7905 69.2789 32.2609L69.3683 3.2892Z" fill="black"/>
<path d="M83.2241 3.2892C83.2241 2.65938 83.7604 2.11954 84.3862 2.02956H96.7223C100.656 2.02956 103.874 3.2892 105.751 5.26864C107.36 6.88817 108.164 9.04756 108.164 11.3869V11.4769C108.164 16.9653 104.142 20.1144 98.7783 20.8342L107.896 32.8907C108.075 33.1607 108.254 33.4306 108.254 33.7005C108.254 34.4203 107.718 34.9602 107.002 34.9602C106.555 34.9602 106.198 34.6902 105.93 34.3303L96.1859 21.2841H85.6377V33.7905C85.6377 34.4203 85.1013 34.9602 84.4756 35.0501C83.8498 35.0501 83.3135 34.5103 83.2241 33.8805V3.2892ZM96.4541 19.1247C101.818 19.1247 105.84 16.3355 105.84 11.6568V11.5668C105.84 7.1581 102.443 4.36889 96.6329 4.36889H85.6377V19.1247H96.4541Z" fill="black"/>
<path d="M111.293 27.9422C111.293 22.9036 115.495 20.1144 121.573 20.1144C124.166 20.1144 126.847 20.4743 129.35 21.1041V20.1144C129.35 15.2558 126.49 12.8265 121.663 12.8265C119.339 12.8265 117.104 13.3663 114.958 14.446C114.78 14.536 114.601 14.536 114.422 14.626C113.886 14.626 113.349 14.1761 113.349 13.5463C113.349 13.0964 113.617 12.7365 113.975 12.5566C116.389 11.3869 118.981 10.7571 121.663 10.7571C124.791 10.7571 127.384 11.6568 129.082 13.3663C130.781 15.1658 131.585 17.5951 131.496 20.1144V33.9704C131.496 34.6003 131.049 35.1401 130.423 35.1401C129.797 35.1401 129.261 34.6902 129.261 34.0604V33.9704V31.0013C127.205 33.9704 123.898 35.59 120.322 35.5C115.942 35.41 111.293 32.8907 111.293 27.9422ZM129.35 25.9627V23.2635C126.758 22.5437 124.076 22.1838 121.395 22.1838C116.389 22.1838 113.707 24.4332 113.707 27.7622V27.8522C113.707 31.2712 116.925 33.3406 120.501 33.3406C125.238 33.2506 129.35 30.2815 129.35 25.9627Z" fill="black"/>
<path d="M137.753 2.83933C137.753 2.11954 138.29 1.48972 139.094 1.39974C139.094 1.39974 139.094 1.39974 139.184 1.39974C139.988 1.39974 140.614 2.02956 140.614 2.74936V3.55913C140.614 4.36889 139.988 4.99871 139.184 4.99871C138.468 4.99871 137.843 4.36889 137.843 3.6491C137.843 3.6491 137.843 3.6491 137.843 3.55913V2.83933H137.753ZM138.021 12.0167C138.021 11.3869 138.468 10.847 139.094 10.847C139.72 10.847 140.256 11.2969 140.256 11.9267V12.0167V33.8805C140.346 34.5103 139.899 34.9602 139.273 35.0501H139.184C138.558 35.0501 138.021 34.6003 138.021 33.9704V33.8805V12.0167Z" fill="black"/>
<path d="M147.676 1.66967C147.676 1.03985 148.123 0.5 148.748 0.5C148.748 0.5 148.749 0.5 148.838 0.5C149.464 0.5 150 1.03985 150 1.66967V33.8805C150.089 34.5103 149.642 34.9602 149.017 35.0501H148.927C148.302 35.0501 147.765 34.6003 147.765 33.9704V33.8805L147.676 1.66967Z" fill="black"/>
</g>
<defs>
<clipPath id="clip0_11_3">
<rect width="150" height="35" fill="white" transform="translate(0 0.5)"/>
</clipPath>
</defs>
</svg>
