<svg width="16" height="16" viewBox="0 0 16 16" fill="none" xmlns="http://www.w3.org/2000/svg">
<path fill-rule="evenodd" clip-rule="evenodd" d="M2.2549 3.2549C2.2549 2.56184 2.81673 2 3.5098 2H8.52941C9.22246 2 9.78434 2.56184 9.78434 3.2549V4.50981H12.2941C12.9872 4.50981 13.549 5.07164 13.549 5.76471V12.0392H14.1764C14.523 12.0392 14.8039 12.3201 14.8039 12.6666C14.8039 13.0132 14.523 13.2941 14.1764 13.2941H1.62744C1.28091 13.2941 1 13.0132 1 12.6666C1 12.3201 1.28091 12.0392 1.62744 12.0392H2.2549V3.2549ZM3.5098 12.0392H8.52941V3.2549H3.5098V12.0392ZM9.78434 12.0392H12.2941V5.76471H9.78434V12.0392ZM4.76471 6.39216C4.76471 6.04563 5.04562 5.76471 5.39215 5.76471H6.64706C6.99359 5.76471 7.2745 6.04563 7.2745 6.39216C7.2745 6.73869 6.99359 7.0196 6.64706 7.0196H5.39215C5.04562 7.0196 4.76471 6.73869 4.76471 6.39216ZM4.76471 8.90196C4.76471 8.55543 5.04562 8.27451 5.39215 8.27451H6.64706C6.99359 8.27451 7.2745 8.55543 7.2745 8.90196C7.2745 9.24849 6.99359 9.52941 6.64706 9.52941H5.39215C5.04562 9.52941 4.76471 9.24849 4.76471 8.90196Z" fill="#696963"/>
</svg>
