<svg width="116" height="49" viewBox="0 0 116 49" fill="none" xmlns="http://www.w3.org/2000/svg">
<path fill-rule="evenodd" clip-rule="evenodd" d="M116 24.9883C116 16.7617 112.026 10.2705 104.429 10.2705C96.8013 10.2705 92.1859 16.7617 92.1859 24.924C92.1859 34.5966 97.6346 39.4811 105.455 39.4811C109.269 39.4811 112.154 38.6134 114.333 37.3923V30.9653C112.154 32.0579 109.654 32.7328 106.481 32.7328C103.372 32.7328 100.615 31.6402 100.263 27.8483H115.936C115.936 27.4305 116 25.7595 116 24.9883ZM100.167 21.9355C100.167 18.3042 102.378 16.7939 104.397 16.7939C106.353 16.7939 108.436 18.3042 108.436 21.9355H100.167Z" fill="black"/>
<path fill-rule="evenodd" clip-rule="evenodd" d="M79.8141 10.2705C76.6731 10.2705 74.6538 11.7487 73.5321 12.777L73.1154 10.7847H66.0641V48.2539L74.0769 46.5507L74.109 37.4566C75.2628 38.2921 76.9615 39.4811 79.7821 39.4811C85.5192 39.4811 90.7436 34.8537 90.7436 24.6669C90.7115 15.3478 85.4231 10.2705 79.8141 10.2705ZM77.891 32.4114C76 32.4114 74.8782 31.7366 74.109 30.9011L74.0769 18.979C74.9103 18.0471 76.0641 17.4044 77.891 17.4044C80.8077 17.4044 82.8269 20.6822 82.8269 24.8919C82.8269 29.1979 80.8397 32.4114 77.891 32.4114Z" fill="black"/>
<path fill-rule="evenodd" clip-rule="evenodd" d="M55.0385 8.37456L63.0833 6.63928V0.115906L55.0385 1.81905V8.37456Z" fill="black"/>
<path d="M63.0833 10.8168H55.0385V38.9348H63.0833V10.8168Z" fill="black"/>
<path fill-rule="evenodd" clip-rule="evenodd" d="M46.4167 13.1948L45.9038 10.8168H38.9808V38.9348H46.9936V19.8788C48.8846 17.4044 52.0897 17.8543 53.0833 18.2078V10.8168C52.0577 10.4312 48.3077 9.7242 46.4167 13.1948Z" fill="black"/>
<path fill-rule="evenodd" clip-rule="evenodd" d="M30.391 3.84357L22.5705 5.51458L22.5385 31.2546C22.5385 36.0105 26.0962 39.5132 30.8398 39.5132C33.468 39.5132 35.391 39.0312 36.4487 38.4528V31.9294C35.4231 32.3472 30.359 33.8254 30.359 29.0694V17.6615H36.4487V10.8168H30.359L30.391 3.84357Z" fill="black"/>
<path fill-rule="evenodd" clip-rule="evenodd" d="M8.72436 18.979C8.72436 17.7258 9.75 17.2438 11.4487 17.2438C13.8846 17.2438 16.9615 17.9829 19.3974 19.3004V11.7487C16.7372 10.6883 14.109 10.2705 11.4487 10.2705C4.94231 10.2705 0.615387 13.6768 0.615387 19.3647C0.615387 28.2339 12.7949 26.8199 12.7949 30.644C12.7949 32.1222 11.5128 32.6042 9.71795 32.6042C7.0577 32.6042 3.66026 31.5116 0.967951 30.0334V37.6815C3.94872 38.9669 6.96154 39.5132 9.71795 39.5132C16.3846 39.5132 20.968 36.2033 20.968 30.4512C20.9359 20.875 8.72436 22.5781 8.72436 18.979Z" fill="black"/>
</svg>
