<svg width="191" height="52" viewBox="0 0 191 52" fill="none" xmlns="http://www.w3.org/2000/svg">
<g clip-path="url(#clip0_1_594)">
<path d="M44.8522 35.4991L44.8255 35.4137L61.808 19.8522V12.3542H34.5622V19.8522H50.8362L50.863 19.924L34.0464 35.4991V42.9972H62.0816V35.4991H44.8522Z" fill="black"/>
<path d="M78.8051 11.6403C75.6624 11.6403 73.101 12.1147 71.1211 13.0635C69.2772 13.8904 67.7236 15.2529 66.6624 16.9741C65.6475 18.7067 65.0099 20.6346 64.7922 22.6312L73.059 23.7941C73.3581 22.0311 73.9563 20.7815 74.8533 20.0451C75.8732 19.275 77.13 18.8859 78.4059 18.9452C80.0836 18.9452 81.3007 19.3941 82.0574 20.2921C82.8065 21.19 83.1878 22.4337 83.1878 24.0725V24.8896H75.2391C71.193 24.8896 68.2863 25.7875 66.5192 27.5835C64.7517 29.3794 63.8696 31.75 63.8727 34.6953C63.8727 37.7124 64.7547 39.9574 66.5192 41.4298C68.2833 42.9027 70.5023 43.6345 73.1759 43.6253C76.4921 43.6253 79.0431 42.4836 80.8281 40.1998C81.8825 38.7962 82.6354 37.1897 83.0395 35.481H83.3402L84.4797 42.9787H91.9707V23.9917C91.9707 20.0676 90.9374 17.028 88.8712 14.8729C86.8045 12.7178 83.4494 11.6403 78.8051 11.6403ZM81.4248 35.0455C80.236 36.0377 78.6798 36.5316 76.7419 36.5316C75.1447 36.5316 74.0354 36.2517 73.4135 35.692C73.1106 35.4272 72.8692 35.0988 72.7072 34.7302C72.5452 34.3617 72.4662 33.9619 72.4761 33.5594C72.4581 33.1797 72.5181 32.8004 72.6514 32.4446C72.7847 32.0888 72.9891 31.7639 73.2519 31.4896C73.5361 31.2227 73.8715 31.0163 74.2379 30.8829C74.6042 30.7493 74.9935 30.6915 75.3827 30.7128H83.2011V31.2292C83.2172 31.959 83.0651 32.6827 82.7572 33.3444C82.449 34.0061 81.9932 34.5881 81.4248 35.0455Z" fill="black"/>
<path d="M137.264 12.3542H128.413V43.0014H137.264V12.3542Z" fill="black"/>
<path d="M189.514 12.3542C187.014 12.3542 185.043 13.2372 183.602 15.0032C182.567 16.2723 181.78 18.1476 181.242 20.6289H180.982L179.825 12.3542H172.266V42.9972H181.117V27.2828C181.117 25.3013 181.58 23.7822 182.507 22.7256C183.434 21.6691 185.145 21.1408 187.639 21.1408H190.998V12.3542H189.514Z" fill="black"/>
<path d="M163.493 13.3559C161.426 12.1258 158.82 11.5122 155.674 11.5151C150.722 11.5151 146.847 12.9265 144.048 15.749C141.248 18.5716 139.849 22.4627 139.849 27.4224C139.778 30.421 140.432 33.3923 141.755 36.0832C142.967 38.4811 144.854 40.4712 147.183 41.8076C149.527 43.1638 152.316 43.8432 155.548 43.8459C158.345 43.8459 160.68 43.415 162.555 42.5531C164.318 41.7789 165.853 40.5653 167.014 39.0286C168.119 37.5199 168.94 35.8218 169.436 34.0179L161.811 31.8808C161.49 33.0538 160.872 34.1239 160.016 34.9877C159.155 35.8497 157.712 36.2808 155.688 36.2808C153.281 36.2808 151.486 35.5908 150.305 34.211C149.448 33.2142 148.91 31.791 148.672 29.9457H169.553C169.638 29.0837 169.683 28.3608 169.683 27.7771V25.8689C169.733 23.3055 169.204 20.7638 168.135 18.4339C167.135 16.3114 165.516 14.5413 163.493 13.3559ZM155.419 18.82C159.007 18.82 161.042 20.5875 161.523 24.1224H148.829C149.031 22.943 149.519 21.8312 150.251 20.8853C151.414 19.5054 153.137 18.817 155.419 18.82Z" fill="black"/>
<path d="M132.933 0.00287482C132.267 -0.019789 131.604 0.0917376 130.982 0.330834C130.36 0.569931 129.793 0.931706 129.313 1.39467C128.841 1.86208 128.47 2.42274 128.226 3.04105C127.981 3.65936 127.867 4.32181 127.892 4.98646C127.868 5.65538 127.982 6.32205 128.227 6.94487C128.472 7.56772 128.842 8.13334 129.315 8.60642C129.789 9.07951 130.354 9.44993 130.976 9.6946C131.599 9.93927 132.265 10.0529 132.933 10.0284C133.597 10.0536 134.26 9.93995 134.877 9.6949C135.495 9.44989 136.055 9.07874 136.522 8.60516C136.985 8.12668 137.346 7.55946 137.584 6.93756C137.822 6.31567 137.933 5.65202 137.908 4.98646C137.938 4.32483 137.831 3.66409 137.592 3.04642C137.353 2.42876 136.988 1.86774 136.521 1.3992C136.053 0.930651 135.493 0.564869 134.876 0.325217C134.259 0.0855656 133.599 -0.0226801 132.938 0.00736894L132.933 0.00287482Z" fill="black"/>
<path d="M114.653 11.5153C111.639 11.5153 109.217 12.4626 107.387 14.3572C106.032 15.7611 105.038 17.8563 104.404 20.6429H104.121L102.964 12.3683H95.4056V51.8066H104.256V35.5625H104.579C104.849 36.6456 105.228 37.6986 105.709 38.7053C106.458 40.3452 107.686 41.7197 109.231 42.6473C110.832 43.5221 112.637 43.9576 114.461 43.9091C118.166 43.9091 120.987 42.4649 122.925 39.5763C124.863 36.6879 125.832 32.6576 125.832 27.4854C125.832 22.4898 124.895 18.5792 123.019 15.7536C121.144 12.9281 118.356 11.5153 114.653 11.5153ZM115.551 33.7217C114.519 35.2183 112.904 35.9666 110.706 35.9666C109.8 36.0084 108.897 35.8336 108.072 35.4565C107.246 35.0794 106.523 34.5108 105.961 33.798C104.815 32.3583 104.244 30.3873 104.247 27.885V27.3013C104.247 24.7601 104.818 22.8145 105.961 21.4646C107.103 20.1147 108.685 19.4472 110.706 19.4622C112.943 19.4622 114.568 20.173 115.582 21.5948C116.596 23.0165 117.103 24.9995 117.103 27.5437C117.109 30.1747 116.594 32.234 115.56 33.7217H115.551Z" fill="black"/>
<path d="M30.6189 35.4989H0V43.0059H30.6189V35.4989Z" fill="black"/>
</g>
<defs>
<clipPath id="clip0_1_594">
<rect width="191" height="52" fill="white"/>
</clipPath>
</defs>
</svg>
